<mxfile host="app.diagrams.net" modified="2023-08-16T08:38:59.193Z" agent="Mozilla/5.0 (Windows NT 10.0; Win64; x64) AppleWebKit/537.36 (KHTML, like Gecko) Chrome/115.0.0.0 Safari/537.36" etag="F8hH6LM9Vj0rGPw52HQ7" version="21.6.8" type="github">
  <diagram name="第 1 页" id="F2vWmejo1Bd2KQeUzTjH">
    <mxGraphModel dx="1050" dy="542" grid="1" gridSize="10" guides="1" tooltips="1" connect="1" arrows="1" fold="1" page="1" pageScale="1" pageWidth="827" pageHeight="1169" math="0" shadow="0">
      <root>
        <mxCell id="0" />
        <mxCell id="1" parent="0" />
        <mxCell id="k6naDkXvU2yxXPIJ-rVW-3" value="" style="edgeStyle=orthogonalEdgeStyle;rounded=0;orthogonalLoop=1;jettySize=auto;html=1;" edge="1" parent="1" source="k6naDkXvU2yxXPIJ-rVW-1" target="k6naDkXvU2yxXPIJ-rVW-2">
          <mxGeometry relative="1" as="geometry" />
        </mxCell>
        <mxCell id="k6naDkXvU2yxXPIJ-rVW-1" value="" style="rounded=1;whiteSpace=wrap;html=1;" vertex="1" parent="1">
          <mxGeometry x="110" y="240" width="120" height="60" as="geometry" />
        </mxCell>
        <mxCell id="k6naDkXvU2yxXPIJ-rVW-5" value="" style="edgeStyle=orthogonalEdgeStyle;rounded=0;orthogonalLoop=1;jettySize=auto;html=1;" edge="1" parent="1" source="k6naDkXvU2yxXPIJ-rVW-2" target="k6naDkXvU2yxXPIJ-rVW-4">
          <mxGeometry relative="1" as="geometry" />
        </mxCell>
        <mxCell id="k6naDkXvU2yxXPIJ-rVW-2" value="" style="ellipse;whiteSpace=wrap;html=1;rounded=1;" vertex="1" parent="1">
          <mxGeometry x="330" y="230" width="80" height="80" as="geometry" />
        </mxCell>
        <mxCell id="k6naDkXvU2yxXPIJ-rVW-7" value="" style="edgeStyle=orthogonalEdgeStyle;rounded=0;orthogonalLoop=1;jettySize=auto;html=1;" edge="1" parent="1" source="k6naDkXvU2yxXPIJ-rVW-4" target="k6naDkXvU2yxXPIJ-rVW-6">
          <mxGeometry relative="1" as="geometry" />
        </mxCell>
        <mxCell id="k6naDkXvU2yxXPIJ-rVW-4" value="" style="rhombus;whiteSpace=wrap;html=1;rounded=1;" vertex="1" parent="1">
          <mxGeometry x="490" y="230" width="80" height="80" as="geometry" />
        </mxCell>
        <mxCell id="k6naDkXvU2yxXPIJ-rVW-6" value="" style="shape=hexagon;perimeter=hexagonPerimeter2;whiteSpace=wrap;html=1;fixedSize=1;rounded=1;" vertex="1" parent="1">
          <mxGeometry x="630" y="230" width="120" height="80" as="geometry" />
        </mxCell>
      </root>
    </mxGraphModel>
  </diagram>
</mxfile>
